<svg width="1200" height="820" viewBox="0 0 1200 820" fill="none" xmlns="http://www.w3.org/2000/svg">
  <defs>
    <linearGradient id="g" x1="0" x2="1" y1="0" y2="1">
      <stop stop-color="#0A56A8"/>
      <stop offset="1" stop-color="#00A6D6"/>
    </linearGradient>
    <filter id="s" x="-20%" y="-20%" width="140%" height="140%"><feDropShadow dx="0" dy="22" stdDeviation="24" flood-color="#063B75" flood-opacity=".22"/></filter>
  </defs>
  <rect width="1200" height="820" rx="58" fill="#EAF6FF"/>
  <circle cx="994" cy="130" r="180" fill="#D3EEFF"/>
  <circle cx="170" cy="712" r="145" fill="#C7E9FA"/>
  <g filter="url(#s)">
    <rect x="194" y="138" width="812" height="520" rx="42" fill="white"/>
    <rect x="244" y="194" width="712" height="150" rx="28" fill="url(#g)"/>
    <rect x="300" y="383" width="595" height="72" rx="19" fill="#F2F8FC"/>
    <rect x="300" y="486" width="350" height="72" rx="19" fill="#F2F8FC"/>
    <rect x="691" y="486" width="204" height="72" rx="19" fill="#F2F8FC"/>
    <g stroke="white" stroke-width="18" stroke-linecap="round">
      <path d="M600 229v82M559 270h82M571 241l58 58M629 241l-58 58"/>
    </g>
  </g>
  <g transform="translate(774 552) rotate(-14)">
    <rect x="0" y="0" width="280" height="80" rx="40" fill="#073E7B"/>
    <circle cx="55" cy="40" r="25" fill="white" opacity=".95"/>
    <path d="M218 15c-29 0-45 16-45 42 0 5 .7 10 2.3 14.6L140 107l27 27 35-35c4.5 1.5 9.4 2.3 14.7 2.3 26 0 42-16 42-45 0-7-1.2-14-3.5-20l-26 26-27-27 26-26A58 58 0 0 0 218 15Z" fill="#E21D38"/>
  </g>
</svg>
