<svg xmlns="http://www.w3.org/2000/svg" width="1600" height="620" viewBox="0 0 1600 620">
  <defs>
    <linearGradient id="bg" x1="0" x2="1" y1="0" y2="1">
      <stop offset="0" stop-color="#0b4f9c"/>
      <stop offset="0.52" stop-color="#0e6fcf"/>
      <stop offset="1" stop-color="#eaf5ff"/>
    </linearGradient>
    <linearGradient id="card" x1="0" x2="1">
      <stop offset="0" stop-color="#f8fbff"/>
      <stop offset="1" stop-color="#dcecff"/>
    </linearGradient>
    <filter id="shadow" x="-20%" y="-20%" width="140%" height="140%">
      <feDropShadow dx="0" dy="18" stdDeviation="18" flood-color="#061f3e" flood-opacity=".28"/>
    </filter>
    <pattern id="grid" width="38" height="38" patternUnits="userSpaceOnUse">
      <path d="M38 0H0V38" fill="none" stroke="#ffffff" stroke-opacity=".13"/>
    </pattern>
  </defs>
  <rect width="1600" height="620" fill="url(#bg)"/>
  <rect width="1600" height="620" fill="url(#grid)"/>
  <circle cx="1280" cy="145" r="230" fill="#ffffff" opacity=".18"/>
  <circle cx="1110" cy="500" r="210" fill="#063b78" opacity=".16"/>

  <!-- Estante superior -->
  <g filter="url(#shadow)" opacity=".96">
    <rect x="820" y="65" width="610" height="155" rx="28" fill="#ffffff" opacity=".92"/>
    <rect x="852" y="107" width="160" height="72" rx="12" fill="#0b4f9c" opacity=".18"/>
    <rect x="1035" y="105" width="90" height="76" rx="10" fill="#0b4f9c" opacity=".25"/>
    <rect x="1140" y="105" width="210" height="76" rx="12" fill="#0b4f9c" opacity=".16"/>
    <rect x="870" y="184" width="525" height="12" rx="6" fill="#0b4f9c" opacity=".55"/>
    <g fill="#0b4f9c" opacity=".82">
      <rect x="872" y="126" width="22" height="42" rx="5"/><rect x="904" y="118" width="22" height="50" rx="5"/><rect x="936" y="129" width="22" height="39" rx="5"/>
      <rect x="1170" y="128" width="30" height="34" rx="5"/><rect x="1214" y="120" width="30" height="42" rx="5"/><rect x="1258" y="132" width="30" height="30" rx="5"/>
    </g>
    <path d="M1065 132h34v34h-34z" fill="#ffffff" opacity=".85"/>
    <path d="M1072 149h20M1082 139v20" stroke="#0b4f9c" stroke-width="5" stroke-linecap="round"/>
  </g>

  <!-- Aire acondicionado -->
  <g filter="url(#shadow)" transform="translate(865 270)">
    <rect x="0" y="0" width="405" height="150" rx="26" fill="url(#card)"/>
    <rect x="28" y="34" width="350" height="44" rx="10" fill="#ffffff"/>
    <path d="M50 100h310" stroke="#0b4f9c" stroke-width="10" stroke-linecap="round" opacity=".45"/>
    <path d="M70 124h80M185 124h80M300 124h44" stroke="#0b4f9c" stroke-width="8" stroke-linecap="round" opacity=".28"/>
    <circle cx="331" cy="55" r="12" fill="#0e6fcf"/>
    <circle cx="360" cy="55" r="12" fill="#e22d47"/>
  </g>

  <!-- Nevera -->
  <g filter="url(#shadow)" transform="translate(1265 255)">
    <rect width="160" height="255" rx="22" fill="#f8fbff"/>
    <rect x="22" y="28" width="116" height="82" rx="12" fill="#e4f1ff"/>
    <rect x="22" y="128" width="116" height="96" rx="12" fill="#d8eaff"/>
    <path d="M50 118h60" stroke="#0b4f9c" stroke-width="8" stroke-linecap="round" opacity=".38"/>
    <path d="M126 144v44" stroke="#0b4f9c" stroke-width="8" stroke-linecap="round" opacity=".55"/>
  </g>

  <!-- Cilindros / piezas -->
  <g filter="url(#shadow)" transform="translate(675 398)">
    <rect x="0" y="35" width="92" height="132" rx="16" fill="#f8fbff"/>
    <rect x="17" y="0" width="58" height="48" rx="12" fill="#d8eaff"/>
    <rect x="13" y="76" width="66" height="18" rx="9" fill="#0e6fcf" opacity=".84"/>
    <rect x="13" y="105" width="66" height="14" rx="7" fill="#0b4f9c" opacity=".35"/>
    <rect x="120" y="68" width="120" height="92" rx="22" fill="#ffffff" opacity=".95"/>
    <circle cx="180" cy="114" r="32" fill="#d8eaff"/>
    <path d="M162 114h36M180 96v36" stroke="#0b4f9c" stroke-width="7" stroke-linecap="round"/>
  </g>

  <!-- Herramientas -->
  <g filter="url(#shadow)" transform="translate(1030 462)">
    <rect x="0" y="0" width="300" height="88" rx="24" fill="#ffffff" opacity=".93"/>
    <path d="M56 58l60-42" stroke="#0b4f9c" stroke-width="16" stroke-linecap="round"/>
    <circle cx="47" cy="64" r="18" fill="#e6f3ff" stroke="#0b4f9c" stroke-width="8"/>
    <rect x="158" y="24" width="90" height="18" rx="9" fill="#0b4f9c" opacity=".65"/>
    <rect x="158" y="52" width="62" height="12" rx="6" fill="#0e6fcf" opacity=".35"/>
  </g>

  <!-- Copos decorativos -->
  <g stroke="#fff" stroke-width="7" stroke-linecap="round" opacity=".55">
    <path d="M725 125v72M689 161h72M700 136l51 51M751 136l-51 51"/>
    <path d="M1438 85v48M1414 109h48M1422 93l32 32M1454 93l-32 32" opacity=".6"/>
  </g>
</svg>
